{"title":"Expendables-BRRip.XviD.DARK.avi","uid":7008761,"size":867012608,"categoryP":"video","categoryS":"movies","magnet":"?xt=urn:btih:a3a5719b67419e1778cea7f48af062a10ec8072c&amp;dn=Expendables-BRRip.XviD.DARK.avi&amp;tr=udp%3A%2F%2Ftracker.openbittorrent.com%3A80&amp;tr=udp%3A%2F%2Fopen.demonii.com%3A1337&amp;tr=udp%3A%2F%2Ftracker.coppersurfer.tk%3A6969&amp;tr=udp%3A%2F%2Fexodus.desync.com%3A6969","seeders":2,"leechers":0,"uploader":"Dark.Raj","files":1,"time":1328362844,"description":"General\nComplete name                    : E:\\All Movies\\Hollywood\\Expendables-BRRip.XviD.DARK.avi\nFormat                           : AVI\nFormat/Info                      : Audio Video Interleave\nFile size                        : 827 MiB\nDuration                         : 1h 43mn\n\nVideo\nID                               : 0\nFormat                           : MPEG-4 Visual\nFormat profile                   : Advanced Simple@L5\nFormat settings, BVOP            : 3\nFormat settings, QPel            : No\nFormat settings, GMC             : No warppoints\nFormat settings, Matrix          : Default (H.263)\nMuxing mode                      : Packed bitstream\nCodec ID                         : XVID\nCodec ID/Hint                    : XviD\nDuration                         : 1h 43mn\nBit rate                         : 916 Kbps\nWidth                            : 720 pixels\nHeight                           : 296 pixels\nDisplay aspect ratio             : 2.40:1\nFrame rate                       : 23.976 fps\nColor space                      : YUV\nChroma subsampling               : 4:2:0\nBit depth                        : 8 bits\nScan type                        : Progressive\nCompression mode                 : Lossy\nBits/(Pixel*Frame)               : 0.179\nStream size                      : 678 MiB (82%)\nWriting library                  : XviD 1.2.0.dev47 (UTC 2006-11-01)\n\nAudio\nID                               : 1\nFormat                           : AC-3\nFormat/Info                      : Audio Coding 3\nMode extension                   : CM (complete main)\nCodec ID                         : 2000\nDuration                         : 1h 43mn\nBit rate mode                    : Constant\nBit rate                         : 192 Kbps\nChannel(s)                       : 6 channels\nChannel positions                : Front: L C R, Side: L R, LFE\nSampling rate                    : 48.0 KHz\nBit depth                        : 16 bits\nCompression mode                 : Lossy\nStream size                      : 142 MiB (17%)\nAlignment                        : Split accross interleaves\nInterleave, duration             : 42 ms (1.00 video frame)\nInterleave, preload duration     : 500 ms","torrent":{"xt":"urn:btih:a3a5719b67419e1778cea7f48af062a10ec8072c","amp;dn":"Expendables-BRRip.XviD.DARK.avi","amp;tr":["udp%3A%2F%2Ftracker.openbittorrent.com%3A80","udp%3A%2F%2Fopen.demonii.com%3A1337","udp%3A%2F%2Ftracker.coppersurfer.tk%3A6969","udp%3A%2F%2Fexodus.desync.com%3A6969"],"infoHash":"a3a5719b67419e1778cea7f48af062a10ec8072c","infoHashBuffer":{"type":"Buffer","data":[163,165,113,155,103,65,158,23,120,206,167,244,138,240,98,161,14,200,7,44]},"announce":[],"urlList":[]}}